<?xml version="1.0" encoding="utf-8"?>
<!-- Generator: Adobe Illustrator 22.1.0, SVG Export Plug-In . SVG Version: 6.00 Build 0)  -->
<svg version="1.1" id="Layer_1" xmlns="http://www.w3.org/2000/svg" xmlns:xlink="http://www.w3.org/1999/xlink" x="0px" y="0px"
	 viewBox="0 0 252 144" style="enable-background:new 0 0 252 144;" xml:space="preserve">
<style type="text/css">
	.st0{fill:url(#SVGID_1_);}
	.st1{fill:#E2E2E2;}
	.st2{opacity:0.1;}
</style>
<radialGradient id="SVGID_1_" cx="252.4518" cy="0.8732" r="290.5341" gradientTransform="matrix(-0.8677 0.4971 -0.3182 -0.5555 471.7859 -124.1259)" gradientUnits="userSpaceOnUse">
	<stop  offset="0" style="stop-color:#5BBFF9"/>
	<stop  offset="1" style="stop-color:#445DA5"/>
</radialGradient>
<polygon class="st0" points="0,0 252,0 252,144 0,144 "/>
<path class="st1" d="M58.6,99.4H73v-8.5H58.6C58,92.1,56.8,95.6,58.6,99.4z"/>
<path class="st1" d="M58.9,88.9H73v-5.2c0-2.9-2.4-5.3-5.3-5.3h-14C57.6,81.7,58.6,86.7,58.9,88.9z"/>
<path class="st1" d="M58.9,101.4c-0.3,2.1-1.3,7.2-5.2,10.4h14c2.9,0,5.3-2.4,5.3-5.3v-5.2H58.9z"/>
<path class="st1" d="M39.2,101.4H25.1v5.2c0,2.9,2.4,5.3,5.3,5.3h14C40.4,108.5,39.4,103.5,39.2,101.4z"/>
<path class="st1" d="M39.2,88.9c0.3-2.1,1.3-7.2,5.2-10.4h-14c-2.9,0-5.3,2.4-5.3,5.3v5.2H39.2z"/>
<path class="st1" d="M25.1,99.4h14.2c1.8-3.8,0.6-7.2,0-8.5H25.1V99.4z"/>
<path class="st1" d="M56.9,89.6c-0.1-1.4-0.9-7.9-6.2-10.8c-0.5-0.3-1.1-0.4-1.7-0.4c-0.6,0-1.2,0.1-1.7,0.4
	c-5.9,3.2-6.2,11-6.2,11.1l0,0.1c0.7,1.5,2.2,5.7,0,10.3l0,0.1c0,0.4,0.4,7.9,6.2,11.1c0.5,0.3,1.1,0.4,1.7,0.4
	c0.6,0,1.2-0.1,1.7-0.4c5.3-2.9,6.1-9.6,6.2-10.9C54.3,95.5,56.3,90.8,56.9,89.6z M49,84.4c-0.9,0-1.5-0.7-1.5-1.5
	c0-0.9,0.7-1.5,1.5-1.5c0.9,0,1.5,0.7,1.5,1.5C50.6,83.7,49.9,84.4,49,84.4z"/>
<path class="st2" d="M148,111.9c2.5-4.5,5-9,7.5-13.4c14.6-26.1,29.3-52.2,43.9-78.3c1.4-2.5,3.8-3.4,6-2.3c2.3,1.3,2.9,3.8,1.4,6.4
	c-5.7,10.1-11.4,20.3-17,30.4c-2.9,5.2-5.8,10.4-8.8,15.6c-0.5,0.9-0.5,1.5,0,2.4c9.3,15.8,18.5,31.5,27.7,47.3
	c0.6,1,0.9,2.2,0.9,3.4c-0.1,1.9-1.5,3.1-3.3,3.6c-1.6,0.4-3.4-0.3-4.4-1.9c-1.4-2.3-2.8-4.7-4.2-7.1c-7.1-12.2-14.2-24.3-21.4-36.5
	c-0.2-0.3-0.4-0.7-0.8-1.2c-0.3,0.5-0.6,0.9-0.8,1.4c-7.8,13.9-15.6,27.9-23.5,41.8c-1.7,3.1-4.5,4.3-7.6,3.4
	c-2.5-0.7-4.3-3-4.5-5.5c0-0.3,0-0.6,0-1c0-32.7,0-65.4,0-98.1c0-2.7,1.5-4.5,3.8-4.7c2.4-0.2,4.4,1.5,4.6,3.9c0.1,0.5,0,1.1,0,1.7
	c0,29.1,0,58.1,0,87.2c0,0.5,0,1.1,0,1.6C147.8,111.8,147.9,111.8,148,111.9z"/>
<path class="st2" d="M243.8,67.7c-0.3-3.7-0.1-7.3-0.9-10.6c-1.6-7.3-8.5-11.7-15.4-11.4c-8.4,0.5-14.3,7.5-14.3,14.4
	c-0.1,9.1-0.1,18.1,0,27.2c0.1,7.1,6.9,13.6,14.1,13.8c8.1,0.3,14.4-4.6,16.1-12.6c0.5-2.6,2.7-4.1,5-3.7c2.5,0.5,3.9,2.7,3.3,5.4
	c-2.5,12.2-13,20.1-25.4,19.3c-10.2-0.7-19.6-9.3-21.2-19.4c-0.2-1.5-0.4-3.1-0.4-4.7c0-8.7-0.2-17.5,0.1-26.2
	c0.3-10.5,8.6-19.7,19-21.7c13.3-2.5,25.6,6,28.1,19.4c0.2,1.1,0.3,2.3,0.3,3.4c0,3.7,0,7.5,0,11.2c0,2.8-1.8,4.6-4.6,4.6
	c-8.7,0-17.5,0-26.2,0c-2.6,0-4.5-1.8-4.5-4.2c0-2.4,1.8-4.2,4.4-4.3c6.9,0,13.8,0,20.7,0C242.4,67.7,242.9,67.7,243.8,67.7z"/>
<path class="st2" d="M102.6,71.5c-0.1-20.6,7.1-40.5,19.7-56.6c0.1-0.2,0.3-0.4,0.5-0.6c0.3-0.4,0.6-0.7,0.9-1.1
	c0.3-0.4,0.6-0.7,0.9-1.1c0.2-0.2,0.3-0.4,0.5-0.6c0.4-0.4,0.8-0.9,1.2-1.3c0.1-0.1,0.1-0.1,0.2-0.2c0.2-0.3,0.5-0.5,0.7-0.8
	c3.1-3.4,6.4-6.4,9.8-9.3h-12.7c-5.3,5.2-10,11.1-14.3,17.7c-0.8,1.2-1.6,2.5-2.3,3.7c-2.8,4.9-5.2,10-7.2,15.4
	c-4.1,10.9-6.2,22.2-6.3,33.9c-0.2,19.3,4.5,37.2,14.4,53.7c0.8,1.3,1.6,2.7,2.5,4c0,0,0,0,0,0c0,0.1,0.1,0.1,0.1,0.2
	c2.4,3.6,5,7,7.9,10.3c0.2,0.2,0.3,0.4,0.5,0.6c0.7,0.7,1.3,1.5,2,2.2c0.8,0.8,1.6,1.6,2.4,2.4h12.6
	C115.6,126.8,102.4,100.7,102.6,71.5z"/>
</svg>
