<svg xmlns="http://www.w3.org/2000/svg" width="22" height="22" viewBox="0 0 22 22">
  <g id="Group_2799" data-name="Group 2799" transform="translate(-990.538 -736.021)">
    <circle id="Ellipse_145" data-name="Ellipse 145" cx="11" cy="11" r="11" transform="translate(990.538 736.021)" fill="#454d93"/>
    <path id="Path_3220" data-name="Path 3220" d="M1043.759,792.6l2.9-5.173a.46.46,0,1,0-.8-.45l-5.647,10.068V787.2a.46.46,0,0,0-.92,0v10.735a.679.679,0,0,0,.513.665.708.708,0,0,0,.179.023.678.678,0,0,0,.594-.352l2.66-4.742,2.844,4.865a.46.46,0,0,0,.795-.465Z" transform="translate(-43.962 -45.509)" fill="#fff"/>
    <path id="Path_3221" data-name="Path 3221" d="M1112.737,816.045a2.576,2.576,0,0,1-2.573-2.573v-2.714a2.573,2.573,0,1,1,5.145,0v1.2a.46.46,0,0,1-.46.46h-2.9a.46.46,0,0,1,0-.92h2.442v-.736a1.652,1.652,0,1,0-3.3,0v2.714a1.652,1.652,0,0,0,3.283.264.46.46,0,1,1,.908.148A2.6,2.6,0,0,1,1112.737,816.045Z" transform="translate(-107.754 -64.815)" fill="#fff"/>
  </g>
</svg>
