<svg id="Logo_KE" data-name="Logo KE" xmlns="http://www.w3.org/2000/svg" width="146.052" height="146.052" viewBox="0 0 146.052 146.052">
  <g id="Group_2817" data-name="Group 2817" transform="translate(-990.448 -591.176)">
    <path id="Path_3216" data-name="Path 3216" d="M1063.474,882.228A73.026,73.026,0,1,1,1136.5,809.2,73.109,73.109,0,0,1,1063.474,882.228Z" transform="translate(0 -145)" fill="#415593"/>
    <path id="Path_3217" data-name="Path 3217" d="M1068.974,825.654l19.275-34.364a3.057,3.057,0,1,0-5.333-2.991L1045.4,855.174v-65.38a3.057,3.057,0,0,0-6.115,0V861.1a4.51,4.51,0,0,0,3.41,4.417,4.694,4.694,0,0,0,1.189.155,4.5,4.5,0,0,0,3.948-2.338l17.668-31.5,18.889,32.318a3.057,3.057,0,0,0,5.278-3.086Z" transform="translate(-16.425 -162.003)" fill="#fff"/>
    <path id="Path_3218" data-name="Path 3218" d="M1127.253,860.391a17.108,17.108,0,0,1-17.089-17.089V825.275a17.089,17.089,0,1,1,34.177,0v7.949a3.058,3.058,0,0,1-3.058,3.057h-19.275a3.057,3.057,0,0,1,0-6.115h16.218v-4.892a10.974,10.974,0,1,0-21.948,0V843.3a10.974,10.974,0,0,0,21.806,1.755,3.057,3.057,0,1,1,6.036.98A17.238,17.238,0,0,1,1127.253,860.391Z" transform="translate(-40.259 -169.216)" fill="#fff"/>
  </g>
</svg>
