<svg xmlns="http://www.w3.org/2000/svg" width="16" height="16" viewBox="0 0 16 16">
  <g id="Group_2812" data-name="Group 2812" transform="translate(-448.367 -140.171)">
    <path id="Path_3250" data-name="Path 3250" d="M455.719,145.523a1.374,1.374,0,0,0-.453-.3,1.422,1.422,0,0,0-1.093,0,1.374,1.374,0,0,0-.453.3,1.35,1.35,0,0,0-.3.453,1.406,1.406,0,0,0,0,1.093,1.35,1.35,0,0,0,.3.453,1.373,1.373,0,0,0,.453.3,1.422,1.422,0,0,0,1.093,0,1.332,1.332,0,0,0,.751-.751,1.421,1.421,0,0,0,0-1.093A1.373,1.373,0,0,0,455.719,145.523Z" transform="translate(1.648 1.648)" fill="#77c5ff"/>
    <path id="Path_3251" data-name="Path 3251" d="M464.351,147.718a1.845,1.845,0,0,1-.015-.235.68.68,0,0,0-.032-.219l-2.437-.749c-.02-.084-.047-.172-.077-.265s-.068-.188-.109-.281-.084-.183-.125-.267l-.125-.249,1.188-2.251a3.222,3.222,0,0,0-.281-.359c-.1-.115-.209-.224-.313-.328s-.213-.208-.328-.313a3.065,3.065,0,0,0-.359-.28l-2.251,1.187-.249-.125c-.084-.041-.172-.083-.265-.124a2.845,2.845,0,0,0-.281-.109c-.095-.032-.183-.057-.267-.079l-.749-2.437a1.737,1.737,0,0,1-.219-.016c-.084-.011-.161-.02-.235-.031a1.508,1.508,0,0,0-.219-.016h-.469a1.523,1.523,0,0,0-.219.016c-.072.011-.151.02-.233.031a1.772,1.772,0,0,1-.22.016l-.749,2.437c-.084.021-.172.047-.265.079a2.613,2.613,0,0,0-.281.109c-.093.041-.183.083-.265.124l-.251.125-2.249-1.187a2.964,2.964,0,0,0-.36.28c-.115.105-.224.209-.328.313s-.208.213-.312.328a2.941,2.941,0,0,0-.281.359l1.187,2.251-.124.249c-.043.084-.084.172-.125.267a2.914,2.914,0,0,0-.109.281c-.032.093-.057.181-.079.265l-2.437.749a.683.683,0,0,0-.031.219,1.629,1.629,0,0,1-.016.235,1.52,1.52,0,0,0-.016.219v.469a1.872,1.872,0,0,0,.016.235,1.848,1.848,0,0,1,.016.233.63.63,0,0,0,.031.2l2.437.749c.021.084.047.172.079.265a2.911,2.911,0,0,0,.109.281c.041.095.083.183.125.267s.083.176.124.281l-1.187,2.219a2.944,2.944,0,0,0,.281.359q.156.172.312.328c.1.1.213.208.328.313s.235.208.36.312l2.249-1.219.251.125c.083.041.172.083.265.124a2.607,2.607,0,0,0,.281.109c.093.032.181.057.265.079l.749,2.437a.683.683,0,0,0,.22.032,1.613,1.613,0,0,1,.233.015,1.52,1.52,0,0,0,.219.016h.469a1.506,1.506,0,0,0,.219-.016,1.633,1.633,0,0,1,.235-.015.681.681,0,0,0,.219-.032l.749-2.437c.084-.021.172-.047.267-.079a2.837,2.837,0,0,0,.281-.109c.093-.041.181-.083.265-.124l.249-.125,2.251,1.219c.124-.1.244-.208.359-.312s.224-.209.328-.313.209-.213.313-.328a3.226,3.226,0,0,0,.281-.359l-1.188-2.251.125-.249c.041-.084.083-.172.125-.267s.077-.187.109-.281.057-.181.077-.265l2.437-.749a.628.628,0,0,0,.032-.2,2.106,2.106,0,0,1,.015-.233,1.872,1.872,0,0,0,.016-.235v-.469A1.52,1.52,0,0,0,464.351,147.718Zm-5.828,1.375a2.585,2.585,0,0,1-.5.751,2.088,2.088,0,0,1-.733.5,2.557,2.557,0,0,1-1.844,0,2.093,2.093,0,0,1-.735-.5,2.637,2.637,0,0,1-.5-.751,2.236,2.236,0,0,1-.188-.921,2.277,2.277,0,0,1,.188-.907,2.38,2.38,0,0,1,.5-.749,2.422,2.422,0,0,1,.735-.5,2.355,2.355,0,0,1,1.844,0,2.416,2.416,0,0,1,.733.5,2.337,2.337,0,0,1,.5.749,2.278,2.278,0,0,1,.188.907A2.237,2.237,0,0,1,458.523,149.092Z" fill="#77c5ff"/>
  </g>
</svg>
